<svg class="attachment-medium size-medium style-svg replaced-svg svg-replaced-5" id="svg-replaced-5" viewBox="0 0 537.17 179.06" xmlns="http://www.w3.org/2000/svg"><defs><style>.cls-1{fill:#005670;}</style></defs><g data-name="Layer 2" id="Layer_2"><g data-name="Layer 1" id="Layer_1-2"><path d="M515.94,43.41c-6.86,0-11.84-5.63-11.84-12.49s4.89-12.4,11.75-12.4S527.78,24.15,527.78,31,522.89,43.41,515.94,43.41Zm-32.23,5.08h6.21V13.54h-6.21Zm-31.19,0H477V42.85H458.63V13.54h-6.11ZM422.36,34.58l5.92-13.9,6.11,13.9ZM410.24,48.49h6.3L420.11,40h16.53l3.48,8.46h6.48L431.29,13.54h-5.73Zm-16.82.19h5.36l14.56-35.14h-6.67L396.24,40.41,385.72,13.54H379Zm122.43.37a18,18,0,0,0,18.32-18.13,17.73,17.73,0,0,0-18.23-18A18,18,0,0,0,497.62,31,17.79,17.79,0,0,0,515.85,49.05Zm-27.22,85.59c-6.42,0-10.54-4.13-10.54-12.37,0-17.4,12.37-35.72,24.73-35.72,6.41,0,10.08,4.58,10.08,13.28C512.9,114,502.82,134.64,488.63,134.64Zm-239-82.43A25.7,25.7,0,0,0,275.22,26.1c0-9.61-7.78-16.94-18.31-16.94-13.74,0-25.19,11.91-25.65,25.64C231.26,45.34,238.13,52.21,249.58,52.21ZM94.34,76.48c19.23-33.89,39.84-52.21,54.95-52.21,8.24,0,11.91,5.5,11.91,17.4a99.77,99.77,0,0,1-5,30.23C135.55,73.73,113.57,76.48,94.34,76.48ZM37.55,179.06c11,0,18.78-6.87,24.73-22.44,8.24-22.44,14.65-38,19.69-49,20.61-3.21,44.42-8.7,65.49-12.83-12.82,26.11-29.77,50.38-29.77,66,0,11,6,16.94,16.49,16.94,13.28,0,22.89-11.45,31.6-29.31a284.06,284.06,0,0,0,19.69-58.61c4.58-.46,9.16-.92,12.82-.92,9.62,0,13.28,2.75,13.28,8.7,0,14.2-17.86,33-17.86,52.67,0,10.53,5.95,18.31,18.32,18.31,11.45,0,24.27-6.41,39.84-22.44,2.75-2.74,5-2.29,5,1.84.45,13.73,8.7,20.6,20.15,20.6,7.78,0,11.9-3.2,13.73-9.61C300,121.81,309.11,103,321.93,103c5,0,8.25,2.75,8.25,7.78,0,11.45-11.91,25.65-11.91,38.93,0,9.61,6,15.57,16,15.57,13.28,0,17.4-10.08,19.69-19.69,3.66-15.57,10.08-42.59,26.56-42.59,4.58,0,7.33,2.29,7.33,6.87,0,9.16-11,25.18-11,40.3,0,11.44,6.87,18.31,19.69,18.31,14.2,0,26.56-8.24,42.59-23.35,1.37-1.38,2.29-1.83,3.2-1.83s1.84.91,2.75,3.2c5.95,14.2,17.86,22,35.26,22,31.6,0,56.79-32.05,56.79-67.31,0-22.9-12.82-37.56-34.35-37.56-26.56,0-46.71,22.9-55.87,51.75-5,10.08-11.9,15.57-19.23,15.57-5.5,0-8.7-3.2-8.7-8.7,0-11.91,12.82-24.73,12.82-40.76,0-11.44-6.87-17.86-16.94-17.86-22,0-34.81,28.85-46.26,28.85-3.66,0-5.95-.91-7.32-14.19-.92-10.08-5.5-14.66-13.74-14.66-12.82,0-23.36,11.45-33.89,26.56-1.37,1.84-2.29,2.29-3.2,2.29-1.84,0-2.75-1.37-3.21-4.12s-.92-6.87-2.29-10.53c-2.29-5.95-7.33-10.07-12.82-10.07q-6.87,0-9.62,6.86l-11,31.15C267,118.15,256,131,245,131c-5.5,0-7.79-3.2-7.79-8.7,0-11.45,13.29-26.1,13.29-40.76,0-9.61-6.42-16-22.9-16-7.33,0-21.53,1.37-38.47,3.2a172.92,172.92,0,0,0,1.37-21.06C190.5,16,180,0,159.36,0c-32.05,0-71,36.64-99.83,76.48-31.6-1.84-39.84-8.7-49.46-8.7C4.12,67.78,0,71.9,0,78.77c0,16,15.57,27.93,38.47,31.14a236.16,236.16,0,0,0-11.91,24.27c-5,11.9-6.41,19.23-6.41,25.18C20.15,171.27,26.56,179.06,37.55,179.06Z" class="cls-1"></path></g></g></svg>