<svg width="96" height="33" viewBox="0 0 96 33" fill="none" xmlns="http://www.w3.org/2000/svg">
    <g clip-path="url(#clip0_160_2676)">
        <path d="M92.2042 8.32804C90.9782 8.32804 90.0882 7.32189 90.0882 6.09594C90.0882 4.86998 90.9621 3.87992 92.1881 3.87992C93.414 3.87992 94.3201 4.88606 94.3201 6.11023C94.3201 7.3344 93.4462 8.32804 92.2042 8.32804ZM86.4443 9.23589H87.5541V2.98994H86.4443V9.23589ZM80.8703 9.23589H85.2452V8.22796H81.9622V2.98994H80.8703V9.23589ZM75.4804 6.75002L76.5384 4.26593L77.6303 6.75002H75.4804ZM73.3144 9.23589H74.4403L75.0783 7.71863H78.0324L78.6543 9.23053H79.8124L77.0763 2.98994H76.0523L73.3144 9.23589ZM70.3085 9.26984H71.2664L73.8684 2.98994H72.6764L70.8125 7.7919L68.9324 2.98994H67.7315L70.3085 9.26984ZM92.1881 9.33597C92.6173 9.34361 93.0437 9.26528 93.4421 9.10558C93.8405 8.94589 94.203 8.70807 94.5081 8.40612C94.8132 8.10418 95.0548 7.74423 95.2186 7.34747C95.3825 6.95071 95.4652 6.52518 95.4621 6.09594C95.4688 5.66817 95.3888 5.24347 95.2269 4.84746C95.065 4.45145 94.8246 4.09232 94.5202 3.79173C94.2157 3.49114 93.8536 3.25532 93.4555 3.09848C93.0575 2.94163 92.6318 2.86702 92.2042 2.87914C91.7757 2.87151 91.3501 2.94957 90.9523 3.10871C90.5544 3.26785 90.1924 3.50487 89.8874 3.80586C89.5824 4.10685 89.3406 4.46574 89.1762 4.86145C89.0119 5.25717 88.9282 5.68174 88.9302 6.11023C88.9238 6.53833 89.0039 6.96332 89.1658 7.35969C89.3277 7.75606 89.568 8.11565 89.8722 8.41689C90.1764 8.71813 90.5384 8.95481 90.9364 9.11275C91.3343 9.27068 91.7601 9.3466 92.1881 9.33597ZM87.3236 24.6318C86.1763 24.6318 85.44 23.8938 85.44 22.4212C85.44 19.3116 87.6506 16.0376 89.8595 16.0376C91.005 16.0376 91.6609 16.8561 91.6609 18.4109C91.6609 20.9432 89.8595 24.6318 87.3236 24.6318ZM44.6116 9.90069C45.2193 9.89817 45.8205 9.77507 46.3803 9.53853C46.9401 9.30198 47.4473 8.9567 47.8727 8.52268C48.2981 8.08867 48.6331 7.57455 48.8583 7.01012C49.0836 6.4457 49.1946 5.84218 49.1849 5.23455C49.1849 3.51714 47.7945 2.20718 45.9127 2.20718C43.4572 2.20718 41.4109 4.33563 41.3287 6.78933C41.3287 8.67295 42.5565 9.90069 44.6027 9.90069H44.6116ZM16.8596 14.238C20.2962 8.18149 23.9794 4.90751 26.6798 4.90751C28.1523 4.90751 28.8082 5.89042 28.8082 8.01708C28.7903 9.85316 28.4889 11.6755 27.9147 13.4195C24.2243 13.7466 20.2962 14.238 16.8596 14.238ZM6.7106 32.5702C8.67642 32.5702 10.0668 31.3424 11.1301 28.5599C12.6027 24.5496 13.7482 21.7689 14.6489 19.8031C18.3322 19.2294 22.5873 18.2483 26.3527 17.5102C24.0617 22.1764 21.0325 26.5137 21.0325 29.3051C21.0325 31.271 22.1048 32.3325 23.9794 32.3325C26.3527 32.3325 28.0701 30.2863 29.6267 27.0945C31.1773 23.7415 32.3572 20.2293 33.1455 16.6202C33.964 16.538 34.7825 16.4558 35.4366 16.4558C37.1558 16.4558 37.8099 16.9473 37.8099 18.0106C37.8099 20.5483 34.6181 23.9081 34.6181 27.4233C34.6181 29.3051 35.6814 30.6955 37.8921 30.6955C39.9383 30.6955 42.2294 29.55 45.0119 26.6852C45.5034 26.1956 45.9055 26.276 45.9055 27.0141C45.9859 29.4678 47.4603 30.6955 49.5065 30.6955C50.8969 30.6955 51.6332 30.1236 51.9602 28.9781C53.6133 22.339 55.2414 18.9774 57.5324 18.9774C58.426 18.9774 59.0068 19.4689 59.0068 20.3678C59.0068 22.414 56.8784 24.9517 56.8784 27.325C56.8784 29.0424 57.9506 30.1076 59.7377 30.1076C62.111 30.1076 62.8473 28.3061 63.2566 26.5887C63.9106 23.8062 65.058 18.9774 68.0031 18.9774C68.8216 18.9774 69.3131 19.3867 69.3131 20.2052C69.3131 21.8422 67.3473 24.7051 67.3473 27.4072C67.3473 29.4517 68.575 30.6794 70.8661 30.6794C73.4038 30.6794 75.6126 29.2068 78.4774 26.5065C78.7222 26.2599 78.8866 26.1795 79.0493 26.1795C79.2119 26.1795 79.3781 26.3421 79.5407 26.7514C80.604 29.2891 82.7325 30.683 85.8421 30.683C91.4893 30.683 95.9911 24.9553 95.9911 18.654C95.9911 14.5615 93.7 11.9416 89.8523 11.9416C85.1058 11.9416 81.5047 16.0341 79.8678 21.1899C78.9742 22.9913 77.7411 23.9724 76.4311 23.9724C75.4482 23.9724 74.8764 23.4005 74.8764 22.4176C74.8764 20.2892 77.1674 17.9981 77.1674 15.1334C77.1674 13.0889 75.9397 11.9416 74.1401 11.9416C70.2084 11.9416 67.9191 17.0974 65.8729 17.0974C65.2188 17.0974 64.8096 16.9348 64.5647 14.5615C64.4003 12.7601 63.5818 11.9416 62.1092 11.9416C59.8182 11.9416 57.9345 13.9878 56.0527 16.6881C55.8079 17.017 55.6435 17.0974 55.4808 17.0974C55.152 17.0974 54.9894 16.8526 54.9072 16.3611C54.825 15.8696 54.7428 15.1334 54.4979 14.4793C54.0887 13.4159 53.188 12.6797 52.2069 12.6797C51.3884 12.6797 50.8153 13.0883 50.4877 13.9056L48.5218 19.4725C47.7159 21.6849 45.75 23.9813 43.7842 23.9813C42.8013 23.9813 42.392 23.4095 42.392 22.4266C42.392 20.3803 44.7671 17.7622 44.7671 15.1423C44.7671 13.4249 43.6198 12.2829 40.6746 12.2829C39.3647 12.2829 36.827 12.5277 33.7996 12.8548C33.9578 11.6064 34.0395 10.3495 34.0445 9.09113C34.0445 3.42957 32.168 0.57019 28.4794 0.57019C22.7517 0.57019 15.7909 7.11816 10.6387 14.238C4.9914 13.9092 3.51882 12.6832 1.79962 12.6832C0.73629 12.6832 0 13.4195 0 14.6473C0 17.5066 2.78253 19.6387 6.87501 20.2123C6.08329 21.6163 5.37264 23.0644 4.74657 24.5496C3.85301 26.6763 3.60103 27.9863 3.60103 29.0496C3.60103 31.178 4.74657 32.5702 6.7106 32.5702Z" fill="#005670"/>
    </g>
    <defs>
        <clipPath id="clip0_160_2676">
            <rect width="95.9982" height="32" fill="white" transform="translate(0 0.57019)"/>
        </clipPath>
    </defs>
</svg>
